<?xml version="1.0" encoding="UTF-8"?>
<svg width="524px" height="110px" viewBox="0 0 524 110" version="1.1" xmlns="http://www.w3.org/2000/svg" xmlns:xlink="http://www.w3.org/1999/xlink">
    <title>Group 52</title>
    <defs>
        <polygon id="path-1" points="0.8969 0.0001 72.1093212 0.0001 72.1093212 72 0.8969 72"></polygon>
        <polygon id="path-3" points="0.8969 0.0001 72.1093212 0.0001 72.1093212 72 0.8969 72"></polygon>
        <polygon id="path-5" points="0.0958886322 0.99 35.9972 0.99 35.9972 36.9904 0.0958886322 36.9904"></polygon>
        <polygon id="path-7" points="-0.0024 0.9901 17.997 0.9901 17.997 18.9901 -0.0024 18.9901"></polygon>
        <polygon id="path-9" points="0.0005 0.0001 18.0005 0.0001 18.0005 50 0.0005 50"></polygon>
        <polygon id="path-11" points="0.0005 0.0001 18.0005 0.0001 18.0005 54 0.0005 54"></polygon>
        <polygon id="path-13" points="0.0005 0.0001 18.0005 0.0001 18.0005 50 0.0005 50"></polygon>
    </defs>
    <g id="2.-Ontwerp-proposal-" stroke="none" stroke-width="1" fill="none" fill-rule="evenodd">
        <g id="1-copy-6" transform="translate(-698.000000, -485.000000)">
            <g id="Group-52" transform="translate(698.000000, 485.000000)">
                <path d="M194.9975,91.0001 C185.0565,91.0001 176.9975,82.9411 176.9975,73.0001 C176.9975,63.0591 185.0565,55.0001 194.9975,55.0001 C204.9375,55.0001 212.9975,63.0591 212.9975,73.0001 C212.9975,82.9411 204.9375,91.0001 194.9975,91.0001 M194.9975,37.0001 C175.1145,37.0001 158.9975,53.1181 158.9975,73.0001 C158.9975,92.8821 175.1145,109.0001 194.9975,109.0001 C214.8795,109.0001 230.9975,92.8821 230.9975,73.0001 C230.9975,53.1181 214.8795,37.0001 194.9975,37.0001" id="Fill-1" fill="#00C9FF"></path>
                <path d="M230.9975,73.0001 L230.9975,10.0001 C230.9975,5.0291 226.9685,1.0001 221.9975,1.0001 C217.0265,1.0001 212.9975,5.0291 212.9975,10.0001 L212.9975,73.0001" id="Fill-3" fill="#00C9FF"></path>
                <g id="Group-7" transform="translate(80.000000, 37.010000)">
                    <mask id="mask-2" fill="white">
                        <use xlink:href="#path-1"></use>
                    </mask>
                    <g id="Clip-6"></g>
                    <path d="M23.9809,23.5401 C24.2019,23.2901 24.4429,23.0601 24.6929,22.8301 C27.9219,19.8301 32.2449,18.0001 36.9979,18.0001 C41.2989,18.0001 45.2599,19.5001 48.3589,22.0101 L30.3989,28.5301 L29.3669,28.9101 L19.2889,32.5601 C19.9499,29.1001 21.6149,25.9901 23.9809,23.5401 M36.9979,54.0001 C32.4749,54.0001 28.3339,52.3401 25.1649,49.5901 L43.4459,42.9501 L44.4889,42.5701 L54.8269,38.8201 L68.1459,33.9851 C71.0539,32.9291 72.6989,29.8291 71.9139,26.8361 C70.8229,22.6761 69.0059,18.8131 66.6099,15.3901 C60.0819,6.0801 49.2509,0.0001 36.9979,0.0001 C27.2599,0.0001 18.4259,3.8501 11.9279,10.1001 C11.6869,10.3201 11.4469,10.5601 11.2059,10.8001 C4.8379,17.2901 0.8969,26.1801 0.8969,36.0001 C0.8969,37.0701 0.9479,38.1301 1.0379,39.1801 C1.5889,45.4301 3.7349,51.2301 7.0849,56.1501 C13.5729,65.7201 24.5529,72.0001 36.9979,72.0001 C42.4669,72.0001 47.6549,70.7851 52.3029,68.6101 C57.8949,65.9931 59.0509,58.5121 54.6789,54.1521 C52.0479,51.5291 48.0409,50.7111 44.6789,52.2921 C42.3469,53.3891 39.7429,54.0001 36.9979,54.0001" id="Fill-5" fill="#00C9FF" mask="url(#mask-2)"></path>
                </g>
                <g id="Group-10" transform="translate(317.000000, 37.010000)">
                    <mask id="mask-4" fill="white">
                        <use xlink:href="#path-3"></use>
                    </mask>
                    <g id="Clip-9"></g>
                    <path d="M23.9809,23.5401 C24.2019,23.2901 24.4429,23.0601 24.6929,22.8301 C27.9219,19.8301 32.2449,18.0001 36.9979,18.0001 C41.2989,18.0001 45.2599,19.5001 48.3589,22.0101 L30.3989,28.5301 L29.3669,28.9101 L19.2889,32.5601 C19.9499,29.1001 21.6149,25.9901 23.9809,23.5401 M36.9979,54.0001 C32.4749,54.0001 28.3339,52.3401 25.1649,49.5901 L43.4459,42.9501 L44.4889,42.5701 L54.8269,38.8201 L68.1459,33.9851 C71.0539,32.9291 72.6989,29.8291 71.9139,26.8361 C70.8229,22.6761 69.0059,18.8131 66.6099,15.3901 C60.0819,6.0801 49.2519,0.0001 36.9979,0.0001 C27.2599,0.0001 18.4259,3.8501 11.9279,10.1001 C11.6869,10.3201 11.4469,10.5601 11.2059,10.8001 C4.8379,17.2901 0.8969,26.1801 0.8969,36.0001 C0.8969,37.0701 0.9479,38.1301 1.0379,39.1801 C1.5889,45.4301 3.7349,51.2301 7.0849,56.1501 C13.5729,65.7201 24.5529,72.0001 36.9979,72.0001 C42.4669,72.0001 47.6549,70.7851 52.3029,68.6101 C57.8949,65.9931 59.0509,58.5121 54.6789,54.1521 C52.0479,51.5291 48.0409,50.7111 44.6789,52.2921 C42.3469,53.3891 39.7429,54.0001 36.9979,54.0001" id="Fill-8" fill="#0B3B6B" mask="url(#mask-4)"></path>
                </g>
                <path d="M397.9975,55.0001 L397.9975,100.0001 C397.9975,104.9701 402.0265,109.0001 406.9975,109.0001 C411.9685,109.0001 415.9975,104.9701 415.9975,100.0001 L415.9975,55.0001" id="Fill-11" fill="#0B3B6B"></path>
                <path d="M415.9975,55.0001 L415.9975,10.0001 C415.9975,5.0291 411.9685,1.0001 406.9975,1.0001 C402.0265,1.0001 397.9975,5.0291 397.9975,10.0001 L397.9975,55.0001" id="Fill-13" fill="#0B3B6B"></path>
                <path d="M460.9975,91.0001 C451.0565,91.0001 442.9975,82.9411 442.9975,73.0001 C442.9975,63.0591 451.0565,55.0001 460.9975,55.0001 C470.9375,55.0001 478.9975,63.0591 478.9975,73.0001 C478.9975,82.9411 470.9375,91.0001 460.9975,91.0001 M460.9975,37.0001 C441.1145,37.0001 424.9975,53.1181 424.9975,73.0001 C424.9975,92.8821 441.1145,109.0001 460.9975,109.0001 C480.8795,109.0001 496.9975,92.8821 496.9975,73.0001 C496.9975,53.1181 480.8795,37.0001 460.9975,37.0001" id="Fill-15" fill="#0B3B6B"></path>
                <path d="M478.9975,55.0001 L478.9975,100.0001 C478.9975,104.9701 483.0265,109.0001 487.9975,109.0001 C492.9685,109.0001 496.9975,104.9701 496.9975,100.0001 L496.9975,55.0001" id="Fill-17" fill="#0B3B6B"></path>
                <path d="M496.9975,55.0001 L496.9975,10.0001 C496.9975,5.0291 492.9685,1.0001 487.9975,1.0001 C483.0265,1.0001 478.9975,5.0291 478.9975,10.0001 L478.9975,55.0001" id="Fill-19" fill="#0B3B6B"></path>
                <path d="M246.1062,37.0004 C246.1032,36.9964 246.1012,36.9944 246.0982,36.9914 C245.9202,20.6064 256.0412,6.6334 270.2002,1.5254 C275.9602,-0.5526 281.9972,3.7864 281.9972,10.0774 L281.9972,10.0774 L281.9972,10.4974 C281.9972,14.4134 279.5282,17.7854 275.9562,19.1204 C269.0382,21.7074 264.0962,28.5414 264.0962,36.5674 C264.0962,36.7134 264.1142,36.8544 264.1172,37.0004 L264.1172,37.0004 L263.9975,37.0001 L263.9975,100.0001 C263.9975,104.9701 259.9685,109.0001 254.9975,109.0001 C250.0265,109.0001 245.9975,104.9701 245.9975,100.0001 L245.9975,100.0001 L245.9975,37.0001 Z" id="Combined-Shape" fill="#0B3B6B"></path>
                <path d="M299.9975,55.0001 C288.664167,55.0001 280.164167,55.0001 274.4975,55.0001 C268.830833,55.0001 260.330833,55.0001 248.9975,55.0001 C244.0265,55.0001 239.9975,50.9711 239.9975,46.0001 C239.9975,41.0301 244.0265,37.0001 248.9975,37.0001 C260.330833,37.0001 268.830833,37.0001 274.4975,37.0001 C280.164167,37.0001 288.664167,37.0001 299.9975,37.0001 C304.9685,37.0001 308.9975,41.0301 308.9975,46.0001 C308.9975,50.9711 304.9685,55.0001 299.9975,55.0001" id="Fill-23" fill="#0B3B6B"></path>
                <path d="M308.9975,100.0001 C308.9975,104.9701 304.9685,109.0001 299.9975,109.0001 C295.0265,109.0001 290.9975,104.9701 290.9975,100.0001 L290.9975,100.0001 L290.9975,46.0001 C290.9975,41.0291 295.0265,37.0001 299.9975,37.0001 C304.9685,37.0001 308.9975,41.0291 308.9975,46.0001 L308.9975,46.0001 Z" id="Combined-Shape" fill="#0B3B6B"></path>
                <path d="M299.9975,19.0001 L299.9975,19.0001 C295.0265,19.0001 290.9975,14.9701 290.9975,10.0001 C290.9975,5.0291 295.0265,1.0001 299.9975,1.0001 C304.9685,1.0001 308.9975,5.0291 308.9975,10.0001 C308.9975,14.9701 304.9685,19.0001 299.9975,19.0001" id="Fill-29" fill="#0B3B6B"></path>
                <g id="Group-33" transform="translate(246.000000, 0.010000)">
                    <mask id="mask-6" fill="white">
                        <use xlink:href="#path-5"></use>
                    </mask>
                    <g id="Clip-32"></g>
                </g>
                <g id="Group-36" transform="translate(506.000000, 90.010000)">
                    <mask id="mask-8" fill="white">
                        <use xlink:href="#path-7"></use>
                    </mask>
                    <g id="Clip-35"></g>
                    <path d="M8.9976,18.9901 L8.9976,18.9901 C4.0266,18.9901 -0.0024,14.9601 -0.0024,9.9901 C-0.0024,5.0191 4.0266,0.9901 8.9976,0.9901 C13.9686,0.9901 17.9976,5.0191 17.9976,9.9901 C17.9976,14.9601 13.9686,18.9901 8.9976,18.9901" id="Fill-34" fill="#00C9FF" mask="url(#mask-8)"></path>
                </g>
                <g id="Group-39" transform="translate(0.000000, 59.010000)">
                    <mask id="mask-10" fill="white">
                        <use xlink:href="#path-9"></use>
                    </mask>
                    <g id="Clip-38"></g>
                    <path d="M0.0005,0.0001 L0.0005,41.0001 C0.0005,45.9701 4.0295,50.0001 9.0005,50.0001 C13.9705,50.0001 18.0005,45.9701 18.0005,41.0001 L18.0005,0.0001" id="Fill-37" fill="#00C9FF" mask="url(#mask-10)"></path>
                </g>
                <g id="Group-42" transform="translate(27.000000, 55.010000)">
                    <mask id="mask-12" fill="white">
                        <use xlink:href="#path-11"></use>
                    </mask>
                    <g id="Clip-41"></g>
                    <path d="M0.0005,0.0001 L0.0005,45.0001 C0.0005,49.9701 4.0295,54.0001 9.0005,54.0001 C13.9705,54.0001 18.0005,49.9701 18.0005,45.0001 L18.0005,0.0001" id="Fill-40" fill="#00C9FF" mask="url(#mask-12)"></path>
                </g>
                <g id="Group-45" transform="translate(54.000000, 59.010000)">
                    <mask id="mask-14" fill="white">
                        <use xlink:href="#path-13"></use>
                    </mask>
                    <g id="Clip-44"></g>
                    <path d="M0.0005,0.0001 L0.0005,41.0001 C0.0005,45.9701 4.0295,50.0001 9.0005,50.0001 C13.9705,50.0001 18.0005,45.9701 18.0005,41.0001 L18.0005,0.0001" id="Fill-43" fill="#00C9FF" mask="url(#mask-14)"></path>
                </g>
                <path d="M18.0503,59.0101 C18.3033,56.7661 20.1903,55.0101 22.5003,55.0101 C24.8103,55.0101 26.6963,56.7661 26.9493,59.0101 L44.9873,59.0101 C44.7203,46.8161 34.7583,37.0101 22.5003,37.0101 C10.2413,37.0101 0.2793,46.8161 0.0123,59.0101 L18.0503,59.0101 Z" id="Fill-46" fill="#00C9FF"></path>
                <path d="M45.0503,59.0101 C45.3033,56.7661 47.1903,55.0101 49.5003,55.0101 C51.8103,55.0101 53.6963,56.7661 53.9493,59.0101 L71.9883,59.0101 C71.7203,46.8161 61.7583,37.0101 49.5003,37.0101 C37.2413,37.0101 27.2793,46.8161 27.0123,59.0101 L45.0503,59.0101 Z" id="Fill-48" fill="#00C9FF"></path>
                <path d="M212.9975,53.3509 L212.9975,98.3509 C212.9975,103.3209 217.0265,107.3509 221.9975,107.3509 C226.9685,107.3509 230.9975,103.3209 230.9975,98.3509 L230.9975,53.3509" id="Fill-50" fill="#00C9FF"></path>
            </g>
        </g>
    </g>
</svg>